<svg xmlns="http://www.w3.org/2000/svg" viewBox="0 0 100 100">
  <rect width="100" height="100" rx="22" fill="#352518"/>
  <g fill="#faf2ef">
    <!-- Base -->
    <rect x="18" y="79" width="64" height="11" rx="3"/>
    <!-- Step -->
    <rect x="23" y="68" width="54" height="13" rx="2"/>
    <!-- Body -->
    <path d="M27,68 C25,55 30,43 40,33 C36,26 34,18 37,12 C42,7 50,9 54,15 C58,10 66,9 71,12 C68,18 65,25 67,32 C72,27 76,32 74,39 C78,35 80,43 75,48 C78,46 78,55 73,59 C74,65 70,68 64,68 Z"/>
    <!-- Head -->
    <path d="M40,33 C36,25 30,19 27,12 C31,6 40,8 45,14 C48,9 56,8 62,12 C59,17 57,24 58,31 C53,26 45,26 40,33 Z"/>
    <!-- Eye -->
    <circle cx="33" cy="18" r="3" fill="#352518"/>
    <circle cx="32.5" cy="17.5" r="1" fill="#faf2ef"/>
  </g>
</svg>
